<svg xmlns="http://www.w3.org/2000/svg" width="120" height="33" style=""><rect id="backgroundrect" width="100%" height="100%" x="0" y="0" fill="none" stroke="none" class="" style=""/><g class="currentLayer" style=""><title>Layer 1</title><path fill="#ffffff" d="M16.185000000000002,8.259614195346833 c-0.06800000000000005,-0.09000000000000007 -0.30600000000000016,-0.26 -0.7140000000000003,-0.51 s-0.918,-0.51 -1.53,-0.782 s-1.2810000000000001,-0.51 -2.006,-0.7140000000000003 a8.005,8.005 0 0 0 -2.176,-0.30600000000000016 c-1.995,0 -2.992,0.6690000000000006 -2.992,2.006 c0,0.40800000000000014 0.10700000000000004,0.7480000000000003 0.3230000000000002,1.02 c0.21500000000000008,0.272 0.532,0.516 0.9520000000000003,0.7310000000000003 c0.41900000000000015,0.21500000000000008 0.9460000000000003,0.41400000000000015 1.58,0.5950000000000003 l1.4060000000000001,0.3930000000000002 l0.805,0.21900000000000008 c1.1560000000000001,0.31700000000000017 2.198,0.6630000000000005 3.128,1.037 c0.929,0.37400000000000017 1.717,0.8390000000000003 2.363,1.3940000000000001 a5.647,5.647 0 0 1 1.496,2.023 c0.35000000000000014,0.793 0.527,1.745 0.527,2.856 c0,1.36 -0.255,2.51 -0.7650000000000003,3.451 c-0.51,0.9400000000000003 -1.185,1.7000000000000002 -2.023,2.278 c-0.8400000000000003,0.5780000000000003 -1.802,0.997 -2.89,1.258 c-1.088,0.26 -2.21,0.3910000000000002 -3.366,0.3910000000000002 a19.68,19.68 0 0 1 -5.44,-0.799 c-0.8840000000000003,-0.26 -1.7400000000000002,-0.5720000000000003 -2.567,-0.935 A14.358,14.358 0 0 1 6.661338147750939e-16,22.607614195346834 l2.448,-4.862 c0.09000000000000007,0.11300000000000004 0.3850000000000002,0.3290000000000002 0.8840000000000003,0.6460000000000004 c0.49800000000000016,0.31700000000000017 1.116,0.6350000000000003 1.8530000000000002,0.9520000000000003 c0.7360000000000003,0.31700000000000017 1.558,0.6000000000000003 2.465,0.8500000000000003 c0.906,0.25 1.824,0.37400000000000017 2.754,0.37400000000000017 c1.972,0 2.958,-0.6000000000000003 2.958,-1.802 c0,-0.453 -0.14800000000000008,-0.8270000000000003 -0.44200000000000017,-1.122 c-0.29500000000000015,-0.29500000000000015 -0.7030000000000003,-0.561 -1.224,-0.799 a12.455,12.455 0 0 0 -1.504,-0.56 l-1.702,-0.49500000000000016 l-0.976,-0.28800000000000014 c-1.111,-0.3400000000000003 -2.074,-0.7080000000000003 -2.89,-1.105 c-0.8160000000000003,-0.3970000000000003 -1.49,-0.8560000000000003 -2.023,-1.377 a5.003,5.003 0 0 1 -1.19,-1.802 c-0.261,-0.6800000000000006 -0.3910000000000002,-1.473 -0.3910000000000002,-2.38 c0,-1.27 0.23800000000000004,-2.391 0.7140000000000003,-3.366 a7.266,7.266 0 0 1 1.9380000000000002,-2.465 a8.435,8.435 0 0 1 2.839,-1.513 c1.076,-0.3400000000000003 2.215,-0.51 3.417,-0.51 c0.8380000000000003,0 1.6660000000000006,0.08000000000000004 2.482,0.23800000000000004 c0.8160000000000003,0.15900000000000009 1.598,0.36300000000000016 2.346,0.6120000000000003 c0.7480000000000003,0.25 1.445,0.533 2.09,0.8500000000000003 c0.6470000000000004,0.31700000000000017 1.242,0.6350000000000003 1.786,0.9520000000000003 l-2.448,4.6240000000000006 zM39.609,25.327614195346833 h-5.44 V15.297614195346833 c0,-1.1560000000000001 -0.2270000000000001,-2.006 -0.6800000000000006,-2.55 c-0.454,-0.544 -1.077,-0.8160000000000003 -1.87,-0.8160000000000003 c-0.31800000000000017,0 -0.6630000000000005,0.07400000000000002 -1.037,0.22100000000000009 a4.173,4.173 0 0 0 -1.088,0.6460000000000004 a5.827,5.827 0 0 0 -0.97,1.003 a4.4,4.4 0 0 0 -0.6800000000000006,1.292 V25.327614195346833 h-5.44 V0.5076141953468322 h5.44 v9.962 a6.786,6.786 0 0 1 2.6020000000000003,-2.465 c1.076,-0.5780000000000003 2.26,-0.8670000000000003 3.553,-0.8670000000000003 c1.201,0 2.17,0.21000000000000008 2.907,0.6290000000000003 c0.7360000000000003,0.42000000000000015 1.303,0.9520000000000003 1.7000000000000002,1.598 c0.3960000000000003,0.6460000000000004 0.6630000000000005,1.371 0.799,2.176 c0.136,0.805 0.20400000000000001,1.592 0.20400000000000001,2.363 V25.327614195346833 zm12.34,0.3400000000000003 c-1.5190000000000001,0 -2.873,-0.25 -4.063,-0.7480000000000003 c-1.19,-0.49900000000000017 -2.193,-1.173 -3.01,-2.023 a8.54,8.54 0 0 1 -1.852,-2.958 a9.97,9.97 0 0 1 -0.6300000000000003,-3.519 c0,-1.224 0.21000000000000008,-2.3970000000000002 0.6300000000000003,-3.519 a8.54,8.54 0 0 1 1.8530000000000002,-2.958 c0.8160000000000003,-0.8500000000000003 1.819,-1.53 3.009,-2.04 s2.544,-0.7650000000000003 4.063,-0.7650000000000003 c1.5190000000000001,0 2.867,0.255 4.046,0.7650000000000003 c1.179,0.51 2.176,1.19 2.992,2.04 a8.754,8.754 0 0 1 1.87,2.958 a9.736,9.736 0 0 1 0.6460000000000004,3.519 a9.97,9.97 0 0 1 -0.6300000000000003,3.519 a8.54,8.54 0 0 1 -1.852,2.958 c-0.8160000000000003,0.8500000000000003 -1.82,1.524 -3.01,2.023 c-1.19,0.49900000000000017 -2.543,0.7480000000000003 -4.062,0.7480000000000003 zM47.97,16.41961419534683 c0,1.405 0.37400000000000017,2.533 1.122,3.383 c0.7480000000000003,0.8500000000000003 1.7000000000000002,1.275 2.856,1.275 a3.59,3.59 0 0 0 1.564,-0.3400000000000003 c0.47600000000000015,-0.2270000000000001 0.8900000000000003,-0.544 1.24,-0.9520000000000003 a4.57,4.57 0 0 0 0.8340000000000003,-1.479 a5.632,5.632 0 0 0 0.30600000000000016,-1.887 c0,-1.405 -0.37400000000000017,-2.533 -1.122,-3.383 c-0.7480000000000003,-0.8500000000000003 -1.689,-1.275 -2.822,-1.275 a3.702,3.702 0 0 0 -2.84,1.292 a4.57,4.57 0 0 0 -0.8320000000000003,1.479 a5.632,5.632 0 0 0 -0.30600000000000016,1.887 zm27.776,-4.284 c-1.315,0.02300000000000002 -2.505,0.23800000000000004 -3.5700000000000003,0.6460000000000004 c-1.065,0.40800000000000014 -1.836,1.02 -2.3120000000000003,1.836 V25.327614195346833 h-5.44 V7.477614195346833 h4.998 v3.604 c0.6120000000000003,-1.201 1.4,-2.142 2.363,-2.822 c0.9630000000000003,-0.6800000000000006 1.9889999999999999,-1.031 3.077,-1.054 h0.544 c0.11300000000000004,0 0.2270000000000001,0.011000000000000008 0.3400000000000003,0.03400000000000002 v4.896 zm14.074,12.24 a21.71,21.71 0 0 1 -2.567,0.8840000000000003 c-0.9630000000000003,0.272 -1.932,0.40800000000000014 -2.907,0.40800000000000014 c-0.6800000000000006,0 -1.32,-0.08500000000000005 -1.92,-0.255 a4.286,4.286 0 0 1 -1.582,-0.8160000000000003 c-0.453,-0.37400000000000017 -0.81,-0.8670000000000003 -1.07,-1.479 c-0.262,-0.6120000000000003 -0.3920000000000002,-1.3490000000000002 -0.3920000000000002,-2.21 v-9.316 h-2.278 V7.477614195346833 h2.278 V1.799614195346832 h5.44 V7.477614195346833 h3.638 v4.114 h-3.638 v7.446 c0,0.5900000000000003 0.14700000000000008,1.014 0.44200000000000017,1.275 c0.29500000000000015,0.26 0.6690000000000006,0.3910000000000002 1.122,0.3910000000000002 c0.40800000000000014,0 0.8270000000000003,-0.06800000000000005 1.258,-0.20400000000000001 c0.43000000000000016,-0.136 0.805,-0.28300000000000014 1.122,-0.44200000000000017 l1.054,4.318 zM92.097,0.5076141953468322 h5.44 v18.462 c0,1.36 0.5780000000000003,2.04 1.734,2.04 c0.272,0 0.5720000000000003,-0.04000000000000002 0.901,-0.11900000000000006 c0.3290000000000002,-0.08000000000000004 0.6300000000000003,-0.1980000000000001 0.901,-0.35700000000000015 l0.7140000000000003,4.08 c-0.6800000000000006,0.31700000000000017 -1.462,0.5670000000000003 -2.346,0.7480000000000003 c-0.8840000000000003,0.18100000000000008 -1.711,0.272 -2.482,0.272 c-1.564,0 -2.765,-0.40800000000000014 -3.604,-1.224 c-0.8390000000000003,-0.8160000000000003 -1.258,-1.995 -1.258,-3.536 V0.5076141953468322 zm11.456,27.506 c0.454,0.15900000000000009 0.8790000000000003,0.272 1.275,0.3400000000000003 a6.4,6.4 0 0 0 1.071,0.10200000000000002 c0.6580000000000005,0 1.1680000000000001,-0.2270000000000001 1.53,-0.6800000000000006 c0.36300000000000016,-0.453 0.6920000000000006,-1.27 0.986,-2.448 l-6.8,-17.85 h5.61 l4.148,13.192 l3.5700000000000003,-13.192 h5.1 l-6.8,20.74 a7.106,7.106 0 0 1 -2.55,3.587 c-1.224,0.918 -2.6740000000000004,1.377 -4.352,1.377 a8.17,8.17 0 0 1 -1.377,-0.11900000000000006 a7.516,7.516 0 0 1 -1.4100000000000001,-0.3910000000000002 v-4.658 z" id="svg_1" class="selected" fill-opacity="1"/></g></svg>